<mxfile host="app.diagrams.net" modified="2024-02-02T22:43:05.085Z" agent="Mozilla/5.0 (Macintosh; Intel Mac OS X 10_15_7) AppleWebKit/537.36 (KHTML, like Gecko) Chrome/121.0.0.0 Safari/537.36" etag="pbm6-nWaZe7OM_WGrmqb" version="23.0.2" type="github">
  <diagram name="Page-1" id="enJYUhHLWUeoJ7MYWwsA">
    <mxGraphModel dx="1246" dy="1236" grid="1" gridSize="10" guides="1" tooltips="1" connect="1" arrows="1" fold="1" page="1" pageScale="1" pageWidth="850" pageHeight="1100" math="0" shadow="0">
      <root>
        <mxCell id="0" />
        <mxCell id="1" parent="0" />
        <mxCell id="0KPgUpHknWk_A90EB9Ez-1" value="" style="rounded=0;whiteSpace=wrap;html=1;fillColor=#CDA2BE;strokeColor=#CDA2BE;" vertex="1" parent="1">
          <mxGeometry x="150" y="190" width="390" height="420" as="geometry" />
        </mxCell>
        <mxCell id="0KPgUpHknWk_A90EB9Ez-5" value="" style="endArrow=none;dashed=1;html=1;dashPattern=1 3;strokeWidth=2;rounded=0;entryX=0.5;entryY=0;entryDx=0;entryDy=0;exitX=0.5;exitY=1;exitDx=0;exitDy=0;" edge="1" parent="1" source="0KPgUpHknWk_A90EB9Ez-1" target="0KPgUpHknWk_A90EB9Ez-1">
          <mxGeometry width="50" height="50" relative="1" as="geometry">
            <mxPoint x="400" y="650" as="sourcePoint" />
            <mxPoint x="450" y="600" as="targetPoint" />
          </mxGeometry>
        </mxCell>
        <mxCell id="0KPgUpHknWk_A90EB9Ez-6" value="step" style="text;html=1;strokeColor=#6c8ebf;fillColor=#dae8fc;align=center;verticalAlign=middle;whiteSpace=wrap;rounded=0;" vertex="1" parent="1">
          <mxGeometry x="220" y="380" width="60" height="30" as="geometry" />
        </mxCell>
        <mxCell id="0KPgUpHknWk_A90EB9Ez-7" value="input field" style="text;html=1;strokeColor=#6c8ebf;fillColor=#dae8fc;align=center;verticalAlign=middle;whiteSpace=wrap;rounded=0;" vertex="1" parent="1">
          <mxGeometry x="360" y="310" width="60" height="30" as="geometry" />
        </mxCell>
        <mxCell id="0KPgUpHknWk_A90EB9Ez-8" value="input field" style="text;html=1;strokeColor=#6c8ebf;fillColor=#dae8fc;align=center;verticalAlign=middle;whiteSpace=wrap;rounded=0;" vertex="1" parent="1">
          <mxGeometry x="450" y="310" width="60" height="30" as="geometry" />
        </mxCell>
        <mxCell id="0KPgUpHknWk_A90EB9Ez-9" value="input field" style="text;html=1;strokeColor=#6c8ebf;fillColor=#dae8fc;align=center;verticalAlign=middle;whiteSpace=wrap;rounded=0;" vertex="1" parent="1">
          <mxGeometry x="360" y="360" width="60" height="30" as="geometry" />
        </mxCell>
        <mxCell id="0KPgUpHknWk_A90EB9Ez-10" value="input field" style="text;html=1;strokeColor=#6c8ebf;fillColor=#dae8fc;align=center;verticalAlign=middle;whiteSpace=wrap;rounded=0;" vertex="1" parent="1">
          <mxGeometry x="450" y="360" width="60" height="30" as="geometry" />
        </mxCell>
        <mxCell id="0KPgUpHknWk_A90EB9Ez-16" style="edgeStyle=orthogonalEdgeStyle;rounded=0;orthogonalLoop=1;jettySize=auto;html=1;" edge="1" parent="1" source="0KPgUpHknWk_A90EB9Ez-11">
          <mxGeometry relative="1" as="geometry">
            <mxPoint x="230" y="790" as="targetPoint" />
          </mxGeometry>
        </mxCell>
        <mxCell id="0KPgUpHknWk_A90EB9Ez-11" value="input field" style="text;html=1;strokeColor=#6c8ebf;fillColor=#dae8fc;align=center;verticalAlign=middle;whiteSpace=wrap;rounded=0;" vertex="1" parent="1">
          <mxGeometry x="360" y="410" width="60" height="30" as="geometry" />
        </mxCell>
        <mxCell id="0KPgUpHknWk_A90EB9Ez-12" value="input field" style="text;html=1;strokeColor=#6c8ebf;fillColor=#dae8fc;align=center;verticalAlign=middle;whiteSpace=wrap;rounded=0;" vertex="1" parent="1">
          <mxGeometry x="450" y="410" width="60" height="30" as="geometry" />
        </mxCell>
        <mxCell id="0KPgUpHknWk_A90EB9Ez-22" style="edgeStyle=orthogonalEdgeStyle;rounded=0;orthogonalLoop=1;jettySize=auto;html=1;" edge="1" parent="1" source="0KPgUpHknWk_A90EB9Ez-13" target="0KPgUpHknWk_A90EB9Ez-20">
          <mxGeometry relative="1" as="geometry" />
        </mxCell>
        <mxCell id="0KPgUpHknWk_A90EB9Ez-13" value="CTA" style="text;html=1;strokeColor=#6c8ebf;fillColor=#91A7FF;align=center;verticalAlign=middle;whiteSpace=wrap;rounded=0;" vertex="1" parent="1">
          <mxGeometry x="450" y="550" width="60" height="30" as="geometry" />
        </mxCell>
        <mxCell id="0KPgUpHknWk_A90EB9Ez-14" value="CTA" style="text;html=1;strokeColor=#6c8ebf;fillColor=#dae8fc;align=center;verticalAlign=middle;whiteSpace=wrap;rounded=0;fontStyle=0" vertex="1" parent="1">
          <mxGeometry x="360" y="550" width="60" height="30" as="geometry" />
        </mxCell>
        <mxCell id="0KPgUpHknWk_A90EB9Ez-61" value="PageComponent" style="rounded=0;whiteSpace=wrap;html=1;fillColor=none;" vertex="1" parent="1">
          <mxGeometry x="680" y="270" width="270" height="300" as="geometry" />
        </mxCell>
        <mxCell id="0KPgUpHknWk_A90EB9Ez-21" value="" style="edgeStyle=orthogonalEdgeStyle;rounded=0;orthogonalLoop=1;jettySize=auto;html=1;" edge="1" parent="1" source="0KPgUpHknWk_A90EB9Ez-19" target="0KPgUpHknWk_A90EB9Ez-20">
          <mxGeometry relative="1" as="geometry" />
        </mxCell>
        <mxCell id="0KPgUpHknWk_A90EB9Ez-62" style="edgeStyle=orthogonalEdgeStyle;rounded=0;orthogonalLoop=1;jettySize=auto;html=1;entryX=0.5;entryY=1;entryDx=0;entryDy=0;endArrow=none;endFill=0;startArrow=classic;startFill=1;" edge="1" parent="1" source="0KPgUpHknWk_A90EB9Ez-19" target="0KPgUpHknWk_A90EB9Ez-61">
          <mxGeometry relative="1" as="geometry" />
        </mxCell>
        <mxCell id="0KPgUpHknWk_A90EB9Ez-19" value="Object" style="text;html=1;align=center;verticalAlign=middle;resizable=0;points=[];autosize=1;strokeColor=none;fillColor=none;" vertex="1" parent="1">
          <mxGeometry x="200" y="788" width="60" height="30" as="geometry" />
        </mxCell>
        <mxCell id="0KPgUpHknWk_A90EB9Ez-20" value="useState" style="text;html=1;align=center;verticalAlign=middle;resizable=0;points=[];autosize=1;strokeColor=none;fillColor=none;" vertex="1" parent="1">
          <mxGeometry x="680" y="405" width="70" height="30" as="geometry" />
        </mxCell>
        <mxCell id="0KPgUpHknWk_A90EB9Ez-23" value="Step 1" style="text;html=1;strokeColor=none;fillColor=none;align=center;verticalAlign=middle;whiteSpace=wrap;rounded=0;" vertex="1" parent="1">
          <mxGeometry x="130" y="140" width="60" height="40" as="geometry" />
        </mxCell>
        <mxCell id="0KPgUpHknWk_A90EB9Ez-58" value="Step 2" style="text;html=1;strokeColor=none;fillColor=none;align=center;verticalAlign=middle;whiteSpace=wrap;rounded=0;" vertex="1" parent="1">
          <mxGeometry x="650" y="160" width="60" height="40" as="geometry" />
        </mxCell>
        <mxCell id="0KPgUpHknWk_A90EB9Ez-64" style="edgeStyle=orthogonalEdgeStyle;rounded=0;orthogonalLoop=1;jettySize=auto;html=1;" edge="1" parent="1" source="0KPgUpHknWk_A90EB9Ez-59">
          <mxGeometry relative="1" as="geometry">
            <mxPoint x="1120" y="350" as="targetPoint" />
          </mxGeometry>
        </mxCell>
        <mxCell id="0KPgUpHknWk_A90EB9Ez-59" value="button" style="rhombus;whiteSpace=wrap;html=1;" vertex="1" parent="1">
          <mxGeometry x="730" y="310" width="80" height="80" as="geometry" />
        </mxCell>
        <mxCell id="0KPgUpHknWk_A90EB9Ez-65" style="edgeStyle=orthogonalEdgeStyle;rounded=0;orthogonalLoop=1;jettySize=auto;html=1;" edge="1" parent="1" source="0KPgUpHknWk_A90EB9Ez-60">
          <mxGeometry relative="1" as="geometry">
            <mxPoint x="1120" y="350" as="targetPoint" />
            <Array as="points">
              <mxPoint x="770" y="350" />
            </Array>
          </mxGeometry>
        </mxCell>
        <mxCell id="0KPgUpHknWk_A90EB9Ez-60" value="div&lt;br&gt;(hidden)" style="rhombus;whiteSpace=wrap;html=1;" vertex="1" parent="1">
          <mxGeometry x="730" y="450" width="80" height="80" as="geometry" />
        </mxCell>
        <mxCell id="0KPgUpHknWk_A90EB9Ez-63" style="edgeStyle=orthogonalEdgeStyle;rounded=0;orthogonalLoop=1;jettySize=auto;html=1;entryX=0.041;entryY=1;entryDx=0;entryDy=0;entryPerimeter=0;" edge="1" parent="1" source="0KPgUpHknWk_A90EB9Ez-19" target="0KPgUpHknWk_A90EB9Ez-1">
          <mxGeometry relative="1" as="geometry" />
        </mxCell>
        <mxCell id="0KPgUpHknWk_A90EB9Ez-67" value="PageComponent" style="rounded=0;whiteSpace=wrap;html=1;fillColor=none;" vertex="1" parent="1">
          <mxGeometry x="1120" y="275" width="270" height="300" as="geometry" />
        </mxCell>
      </root>
    </mxGraphModel>
  </diagram>
</mxfile>
